<svg width="57" height="50" viewBox="0 0 57 50" fill="none" xmlns="http://www.w3.org/2000/svg">
<g filter="url(#filter0_d)">
<path d="M30.1398 40.8938H8.47964C6.94585 40.8938 5.69263 39.6435 5.69263 38.1133V15.776C5.69263 14.2458 6.94585 12.9955 8.47964 12.9955H29.7377C30.5887 12.9955 31.3743 12.5383 31.7952 11.7918L34.2549 6.53874C34.7319 5.68966 35.639 5.15782 36.621 5.15782H46.4037C47.9281 5.15782 49.1813 6.40811 49.1813 7.93832V23.8842" stroke="#00C6E1" stroke-width="1.5" stroke-miterlimit="10"/>
<path d="M5.69263 15.8039V10.4296C5.69263 8.89935 6.94585 7.64906 8.47964 7.64906H33.6376" stroke="#00C6E1" stroke-width="1.5" stroke-miterlimit="10"/>
<path d="M10.584 18.1926H18.945" stroke="#00C6E1" stroke-width="1.5" stroke-miterlimit="10" stroke-linecap="round"/>
<path d="M10.584 21.5702H18.945" stroke="#00C6E1" stroke-width="1.5" stroke-miterlimit="10" stroke-linecap="round"/>
<path d="M41.9332 44.9243C47.6354 44.9243 52.258 40.3125 52.258 34.6236C52.258 28.9348 47.6354 24.323 41.9332 24.323C36.231 24.323 31.6084 28.9348 31.6084 34.6236C31.6084 40.3125 36.231 44.9243 41.9332 44.9243Z" fill="#B6F1F9" stroke="#00C6E1" stroke-width="1.1" stroke-miterlimit="10"/>
<path d="M42.1898 38.0631C44.1936 38.0631 45.8181 36.4424 45.8181 34.4433C45.8181 32.4441 44.1936 30.8235 42.1898 30.8235C40.186 30.8235 38.5615 32.4441 38.5615 34.4433C38.5615 36.4424 40.186 38.0631 42.1898 38.0631Z" fill="#00C6E1" stroke="#00C6E1" stroke-width="1.1" stroke-miterlimit="10"/>
</g>
<defs>
<filter id="filter0_d" x="0.942627" y="0.407822" width="55.8653" height="49.0665" filterUnits="userSpaceOnUse" color-interpolation-filters="sRGB">
<feFlood flood-opacity="0" result="BackgroundImageFix"/>
<feColorMatrix in="SourceAlpha" type="matrix" values="0 0 0 0 0 0 0 0 0 0 0 0 0 0 0 0 0 0 127 0"/>
<feOffset/>
<feGaussianBlur stdDeviation="2"/>
<feColorMatrix type="matrix" values="0 0 0 0 0.462745 0 0 0 0 0.313726 0 0 0 0 0.780392 0 0 0 0.25 0"/>
<feBlend mode="normal" in2="BackgroundImageFix" result="effect1_dropShadow"/>
<feBlend mode="normal" in="SourceGraphic" in2="effect1_dropShadow" result="shape"/>
</filter>
</defs>
</svg>
