<svg width="20" height="20" viewBox="0 0 20 20" fill="none" xmlns="http://www.w3.org/2000/svg">
<path d="M9.01412 2.98608H2.61419C2.12923 2.98608 1.66413 3.17873 1.32121 3.52165C0.978295 3.86457 0.785645 4.32967 0.785645 4.81463V17.6145C0.785645 18.0994 0.978295 18.5645 1.32121 18.9075C1.66413 19.2504 2.12923 19.443 2.61419 19.443H15.414C15.899 19.443 16.3641 19.2504 16.707 18.9075C17.0499 18.5645 17.2426 18.0994 17.2426 17.6145V11.2146" stroke="#57565C" stroke-linecap="round" stroke-linejoin="round"/>
<path d="M15.8714 1.61469C16.2351 1.25097 16.7284 1.04663 17.2428 1.04663C17.7572 1.04663 18.2505 1.25097 18.6142 1.61469C18.9779 1.97841 19.1823 2.47172 19.1823 2.9861C19.1823 3.50048 18.9779 3.99379 18.6142 4.35751L9.92858 13.0431L6.27148 13.9574L7.18576 10.3003L15.8714 1.61469Z" stroke="#57565C" stroke-linecap="round" stroke-linejoin="round"/>
</svg>
