<svg width="16" height="15" viewBox="0 0 16 15" fill="none" xmlns="http://www.w3.org/2000/svg">
<path d="M6.97411 2.12073H2.16081C1.79608 2.12073 1.44628 2.26562 1.18838 2.52352C0.930473 2.78143 0.785583 3.13122 0.785583 3.49596V13.1226C0.785583 13.4873 0.930473 13.8371 1.18838 14.095C1.44628 14.3529 1.79608 14.4978 2.16081 14.4978H11.7874C12.1521 14.4978 12.5019 14.3529 12.7598 14.095C13.0177 13.8371 13.1626 13.4873 13.1626 13.1226V8.30925" stroke="#0074DE" stroke-linecap="round" stroke-linejoin="round"/>
<path d="M12.1311 1.08934C12.4047 0.815788 12.7757 0.662109 13.1626 0.662109C13.5494 0.662109 13.9204 0.815788 14.194 1.08934C14.4675 1.36289 14.6212 1.7339 14.6212 2.12076C14.6212 2.50762 14.4675 2.87863 14.194 3.15218L7.66165 9.68451L4.91119 10.3721L5.59881 7.62167L12.1311 1.08934Z" stroke="#0074DE" stroke-linecap="round" stroke-linejoin="round"/>
</svg>
