<svg width="15" height="19" viewBox="0 0 15 19" fill="none" xmlns="http://www.w3.org/2000/svg">
<path d="M11.5426 2.27747H12.4145C13.2986 2.27747 14.0219 3.04982 14.0219 3.99382V16.0083C14.0219 16.9523 13.2986 17.7246 12.4145 17.7246H2.77043C1.88639 17.7246 1.16309 16.9523 1.16309 16.0083V3.99382C1.16309 3.04982 1.88639 2.27747 2.77043 2.27747H3.6751" stroke="#57565C" stroke-linecap="round" stroke-linejoin="round"/>
<path d="M5.09158 0.561096H10.579C11.1278 0.561096 11.4936 0.904367 11.4936 1.41927V3.13563C11.4936 3.65053 11.1278 3.9938 10.579 3.9938H5.09158C4.54283 3.9938 4.177 3.65053 4.177 3.13563V1.41927C4.177 0.904367 4.54283 0.561096 5.09158 0.561096Z" stroke="#57565C" stroke-linecap="round" stroke-linejoin="round"/>
<path d="M3.89575 8.62793H10.8877" stroke="#57565C" stroke-linecap="round" stroke-linejoin="round"/>
<path d="M3.89575 13.3479H10.8877" stroke="#57565C" stroke-linecap="round" stroke-linejoin="round"/>
</svg>
