<svg width="15" height="14" viewBox="0 0 15 14" fill="none" xmlns="http://www.w3.org/2000/svg">
<path d="M8.2939 6.14493L9.28934 5.14949M9.85826 4.58057L9.28934 5.14949L9.85826 4.58057ZM7.12516 7.31367C7.41609 7.60604 7.57978 8.00147 7.58062 8.41393C7.58146 8.82638 7.41937 9.22248 7.12963 9.51603C6.83989 9.80958 6.44594 9.97682 6.03351 9.98137C5.62108 9.98592 5.22354 9.8274 4.9274 9.54031C4.92269 9.53561 4.91799 9.53024 4.91262 9.52553C4.62924 9.2302 4.47291 8.83557 4.47713 8.42629C4.48136 8.01702 4.64583 7.6257 4.93524 7.33629C5.22466 7.04687 5.61597 6.88241 6.02525 6.87818C6.43452 6.87395 6.82915 7.03029 7.12449 7.31367H7.12516ZM7.12516 7.31367L8.2939 6.14493L7.12516 7.31367ZM8.2939 6.14493L9.14694 6.99797L10.1424 6.00253L9.28934 5.14949L8.2939 6.14493Z" stroke="#57565C" stroke-width="0.6" stroke-linecap="round" stroke-linejoin="round"/>
<path d="M9.96074 13.0079C8.66537 13.6093 7.20424 13.753 5.8165 13.4158C4.42876 13.0785 3.19662 12.2801 2.32174 11.1513C1.44686 10.0225 0.981064 8.63019 1.00059 7.20219C1.02012 5.77419 1.5238 4.39511 2.42922 3.29067C3.33464 2.18622 4.58815 1.42184 5.98459 1.12262C7.38103 0.823411 8.83768 1.00709 10.1161 1.64359C11.3946 2.2801 12.4191 3.33173 13.022 4.62637C13.6249 5.921 13.7705 7.38196 13.4349 8.77011" stroke="#57565C" stroke-width="0.8" stroke-linecap="round" stroke-linejoin="round"/>
<path d="M11.8666 7.93335L12.532 11.1661L15 8.97451L11.8666 7.93335Z" fill="#57565C"/>
</svg>
